# xmcd
# 
# Track frame offsets:
#     150
#     48702
#     86288
#     141892
#     187304
#     230521
#     282102
# 
# Disc length: 3927
# 
# Revision: 0
# Processed by: cddbd v1.5.2PL0 Copyright (c) Steve Scherf et al.
# Submitted via: BonkEnc v1.0.8
# 
DISCID=630f5507
DTITLE=Het geluidshuis - Zes grimmige sprookjes voor verdorven kinderen
DYEAR=2008
DGENRE=
TTITLE0=De Slotenmaker en de prins
TTITLE1=De boer en zijn domme vrouwen
TTITLE2=De triestige merel
TTITLE3=De cyclopen van Schellebelle
TTITLE4=De paradijsvogel
TTITLE5=De belegerde stad
TTITLE6=Wiegeliedje uit de cyclopen van Schellebelle (volledige versie)
EXTD=
EXTT0=
EXTT1=
EXTT2=
EXTT3=
EXTT4=
EXTT5=
EXTT6=
PLAYORDER=
